<svg xmlns="http://www.w3.org/2000/svg" width="1024" height="1024" viewBox="0 0 1024 1024">
  <title>splash</title>
  <g id="paper">
    <rect width="1024" height="1024" style="fill: #f2ecde"/>
  </g>
  <g id="river">
    <path d="M37.016,362.75Q17.3,362.823,0,362.859V370q13.549.337,28.384.675,97.752,2.25,169.64,2.234,103.488,0,186.888-2.234Q433.886,369.39,521,368.448c-.308-2.573-.573-5.159-.771-7.759Q275.495,361.684,37.016,362.75Z" style="fill: #177cb0"/>
  </g>
  <g id="reflection">
    <path d="M257.31,441.552q-29.94-1.691-63.236-4.544-9.733-.817-23.385-.816t-25.819,1.194q-12.162,1.194-17.586,3.03t-5.425,2.65q0,.349,1.684.35a48.313,48.313,0,0,0,6.174-.7,81.278,81.278,0,0,1,11.973-.7q7.481,0,21.7.815,40.779,2.329,93.918,4.777M293.231,434.1q14.214.465,23.573.466a215.876,215.876,0,0,0,33.675-2.33q14.592-2.331,14.593-3.408t-3.929-1.573a89.728,89.728,0,0,0-10.664-.5q-6.733,0-18.521.641t-29,.641q-29.564,0-63.236-2.563-20.961-1.574-27.315-1.573a111.05,111.05,0,0,0-20.018,2.126q-11.418,2.127-11.413,3.2c0,.719.994,1.224,2.994,1.515a49.973,49.973,0,0,0,7.109.437q4.113,0,7.671-.233t7.858-.233q4.3,0,18.895.641t17.587.961m50.887,16.69q38.166,1.05,50.326,1.049t19.083-.379a142.3,142.3,0,0,0,16.838-2.155q9.911-1.778,9.915-2.592,0-1.224-14.592-1.224-8.235,0-19.831.437t-25.444.437q-13.848,0-36.3-1.165m-53.133,13.445q-49.8-1.62-58.745-1.619-3.368,0-3.368.233l.374.408c0,.154-.625.233-1.87.233s-3.742-.185-7.484-.554-6.361-.553-7.857-.553-2.245.087-2.245.262,1.5.379,4.489.612q87.18,6.524,102.711,7.952t15.529,1.835q0,.406-3.929,1.136t-3.929.961c0,.155.871.233,2.619.233q8.98,0,27.5-1.019t28.437-3.175q9.909-2.157,9.916-3.059t-7.671-1.515q-7.673-.611-24.134-.815t-25.069-.437" style="fill: #f20c00"/>
  </g>
  <g id="shade">
    <path d="M253.31,201.25a450.941,450.941,0,0,0-63.236,29.186q-9.733,5.244-23.385,5.238A47.554,47.554,0,0,1,140.87,228q-12.162-7.665-17.586-19.458t-5.425-17.024q0-2.245,1.684-2.246t6.174,4.49q4.49,4.491,11.973,4.49t21.7-5.238q40.779-14.96,93.918-30.682m35.921,86.808q14.214-2.989,23.573-2.993,19.082,0,33.675,14.967t14.593,21.889q0,6.92-3.929,10.1t-10.664,3.181q-6.733,0-18.521-4.117t-29-4.116q-29.564,0-63.236,16.464-20.961,10.1-27.315,10.1-8.611,0-20.018-13.657t-11.413-20.58q0-6.92,2.994-9.729a10.033,10.033,0,0,1,7.109-2.806,19.673,19.673,0,0,1,7.671,1.5,19.976,19.976,0,0,0,7.858,1.5q4.3,0,18.895-4.117t17.587-6.173m50.887-107.2q38.166-6.736,50.326-6.735t19.083,2.432q6.921,2.438,16.838,13.844t9.915,16.651q0,7.858-14.592,7.858a86.444,86.444,0,0,1-19.831-2.807,108.191,108.191,0,0,0-25.444-2.806q-13.848,0-36.3,7.483m-53.133-86.355q-49.8,10.4-58.745,10.4-3.368,0-3.368-1.5l.374-2.62c0-.994-.625-1.5-1.87-1.5s-3.742,1.187-7.484,3.555-6.361,3.555-7.857,3.555-2.245-.562-2.245-1.684,1.5-2.432,4.489-3.929q87.18-41.9,102.711-51.075T278.38,46.342q0-2.613-3.929-7.3t-3.929-6.174c0-.993.871-1.5,2.619-1.5q8.98,0,27.5,6.548T329.08,58.315Q338.989,72.163,339,77.96t-7.671,9.728q-7.673,3.93-24.134,5.239t-25.069,2.806" style="fill: #41555d"/>
  </g>
  <g id="item">
    <path d="M261.31,197.25a450.941,450.941,0,0,0-63.236,29.186q-9.733,5.244-23.385,5.238A47.554,47.554,0,0,1,148.87,224q-12.162-7.665-17.586-19.458t-5.425-17.024q0-2.245,1.684-2.246t6.174,4.49q4.489,4.491,11.973,4.49t21.7-5.238q40.779-14.96,93.918-30.682m35.921,86.808q14.214-2.989,23.573-2.993,19.082,0,33.675,14.967t14.593,21.889q0,6.92-3.929,10.1t-10.664,3.181q-6.733,0-18.521-4.117t-29-4.116q-29.564,0-63.236,16.464-20.961,10.1-27.315,10.1-8.611,0-20.018-13.657t-11.413-20.58q0-6.92,2.994-9.729a10.033,10.033,0,0,1,7.109-2.806,19.673,19.673,0,0,1,7.671,1.5,19.976,19.976,0,0,0,7.858,1.5q4.3,0,18.895-4.117t17.587-6.173m50.887-107.2q38.166-6.736,50.326-6.735t19.083,2.432q6.921,2.438,16.838,13.844t9.915,16.651q0,7.858-14.592,7.858a86.444,86.444,0,0,1-19.831-2.807,108.191,108.191,0,0,0-25.444-2.806q-13.848,0-36.3,7.483M244.846,98.921q-49.8,10.4-58.745,10.4-3.368,0-3.368-1.5l.374-2.62c0-.994-.625-1.5-1.87-1.5s-3.742,1.187-7.484,3.555-6.361,3.555-7.857,3.555-2.245-.562-2.245-1.684,1.5-2.432,4.489-3.929q87.18-41.9,102.711-51.075T286.38,42.342q0-2.613-3.929-7.3t-3.929-6.174c0-.993.871-1.5,2.619-1.5q8.98,0,27.5,6.548T337.08,54.315Q346.989,68.163,347,73.96t-7.671,9.728q-7.673,3.93-24.134,5.239t-25.069,2.806"/>
  </g>
</svg>
